<!-- Generated by IcoMoon.io -->
<svg version="1.1" xmlns="http://www.w3.org/2000/svg" width="24" height="24" viewBox="0 0 24 24">
<title>up-arrow</title>
<path d="M16.477 15.534c-0.26-0.26-0.68-0.26-0.94 0l-15.346 15.339c-0.253 0.267-0.247 0.687 0.013 0.94 0.26 0.247 0.667 0.247 0.927 0l14.872-14.866 14.866 14.866c0.267 0.253 0.687 0.247 0.94-0.013 0.247-0.26 0.247-0.667 0-0.927l-15.333-15.339z"></path>
<path d="M1.138 16.475l14.866-14.866 14.866 14.866c0.267 0.253 0.687 0.247 0.94-0.013 0.247-0.26 0.247-0.667 0-0.927l-15.333-15.339c-0.26-0.26-0.68-0.26-0.94 0l-15.346 15.339c-0.253 0.267-0.247 0.687 0.013 0.94 0.267 0.253 0.674 0.253 0.934 0z"></path>
</svg>
